<svg width="426" height="90" viewBox="0 0 426 90" fill="none" xmlns="http://www.w3.org/2000/svg">
<path d="M11.9798 18.5384L22.3419 18.5407L10.3464 39.2949H0L11.9798 18.5384Z" fill="url(#paint0_linear_5684_27616)"/>
<path d="M17.1168 9.53998L22.3251 0.487352L44.6621 39.1761L34.2276 39.1771L17.1168 9.53998Z" fill="url(#paint1_linear_5684_27616)"/>
<path d="M84.0114 39.3885L83.9561 16.1537L72.56 35.2948H68.5215L57.1807 16.6516V39.3885H48.7719V0.66385H56.185L70.6791 24.7285L84.9519 0.66385H92.3095L92.4202 39.3885H84.0114Z" fill="url(#paint2_linear_5684_27616)"/>
<path d="M130.043 19.2517C132.256 19.9524 133.989 21.1326 135.243 22.7922C136.497 24.415 137.124 26.425 137.124 28.8222C137.124 32.2152 135.796 34.8338 133.141 36.6778C130.522 38.485 126.687 39.3885 121.634 39.3885H101.608V0.66385H120.528C125.248 0.66385 128.863 1.56743 131.37 3.37458C133.915 5.18173 135.188 7.63429 135.188 10.7323C135.188 12.6132 134.727 14.2913 133.805 15.7665C132.919 17.2417 131.666 18.4034 130.043 19.2517ZM110.514 7.41301V16.541H119.421C121.634 16.541 123.312 16.1537 124.455 15.3792C125.599 14.6047 126.17 13.4614 126.17 11.9493C126.17 10.4372 125.599 9.31236 124.455 8.57475C123.312 7.80026 121.634 7.41301 119.421 7.41301H110.514ZM120.97 32.6394C123.331 32.6394 125.101 32.2521 126.281 31.4776C127.498 30.7031 128.107 29.5045 128.107 27.8818C128.107 24.6732 125.728 23.0688 120.97 23.0688H110.514V32.6394H120.97Z" fill="url(#paint3_linear_5684_27616)"/>
<path d="M169.412 31.0904H151.433L148.003 39.3885H138.819L156.08 0.66385H164.931L182.246 39.3885H172.842L169.412 31.0904ZM166.59 24.2859L160.45 9.45989L154.309 24.2859H166.59Z" fill="url(#paint4_linear_5684_27616)"/>
<path d="M198.988 40.0524C195.927 40.0524 192.958 39.6467 190.081 38.8353C187.241 37.9871 184.955 36.8991 183.221 35.5714L186.264 28.8222C187.924 30.0393 189.897 31.0166 192.183 31.7542C194.47 32.4919 196.757 32.8607 199.043 32.8607C201.588 32.8607 203.469 32.4919 204.686 31.7542C205.903 30.9797 206.511 29.9655 206.511 28.7116C206.511 27.7896 206.143 27.0335 205.405 26.4434C204.704 25.8165 203.782 25.3186 202.639 24.9498C201.533 24.581 200.02 24.1753 198.103 23.7327C195.152 23.032 192.737 22.3312 190.856 21.6305C188.975 20.9298 187.352 19.8049 185.987 18.2559C184.66 16.7069 183.996 14.6416 183.996 12.06C183.996 9.81025 184.604 7.78182 185.821 5.97466C187.038 4.13063 188.864 2.67385 191.298 1.60431C193.769 0.534769 196.775 0 200.316 0C202.787 0 205.202 0.295045 207.563 0.885134C209.923 1.47523 211.988 2.32348 213.759 3.4299L210.992 10.2344C207.415 8.20594 203.838 7.19173 200.26 7.19173C197.752 7.19173 195.89 7.59741 194.673 8.40879C193.493 9.22016 192.903 10.2897 192.903 11.6174C192.903 12.9451 193.585 13.9409 194.949 14.6047C196.351 15.2317 198.471 15.8587 201.311 16.4856C204.262 17.1864 206.677 17.8871 208.558 18.5878C210.439 19.2886 212.044 20.395 213.371 21.9071C214.736 23.4192 215.418 25.4661 215.418 28.0477C215.418 30.2606 214.791 32.289 213.537 34.133C212.32 35.9402 210.476 37.3785 208.005 38.4481C205.534 39.5176 202.528 40.0524 198.988 40.0524Z" fill="url(#paint5_linear_5684_27616)"/>
<path d="M234.266 40.0524C231.205 40.0524 228.236 39.6467 225.359 38.8353C222.519 37.9871 220.233 36.8991 218.499 35.5714L221.542 28.8222C223.202 30.0393 225.175 31.0166 227.461 31.7542C229.748 32.4919 232.034 32.8607 234.321 32.8607C236.866 32.8607 238.747 32.4919 239.964 31.7542C241.181 30.9797 241.789 29.9655 241.789 28.7116C241.789 27.7896 241.421 27.0335 240.683 26.4434C239.982 25.8165 239.06 25.3186 237.917 24.9498C236.811 24.581 235.298 24.1753 233.381 23.7327C230.43 23.032 228.014 22.3312 226.134 21.6305C224.253 20.9298 222.63 19.8049 221.265 18.2559C219.938 16.7069 219.274 14.6416 219.274 12.06C219.274 9.81025 219.882 7.78182 221.099 5.97466C222.316 4.13063 224.142 2.67385 226.576 1.60431C229.047 0.534769 232.053 0 235.593 0C238.064 0 240.48 0.295045 242.84 0.885134C245.201 1.47523 247.266 2.32348 249.036 3.4299L246.27 10.2344C242.693 8.20594 239.116 7.19173 235.538 7.19173C233.03 7.19173 231.168 7.59741 229.951 8.40879C228.771 9.22016 228.18 10.2897 228.18 11.6174C228.18 12.9451 228.863 13.9409 230.227 14.6047C231.629 15.2317 233.749 15.8587 236.589 16.4856C239.54 17.1864 241.955 17.8871 243.836 18.5878C245.717 19.2886 247.322 20.395 248.649 21.9071C250.014 23.4192 250.696 25.4661 250.696 28.0477C250.696 30.2606 250.069 32.289 248.815 34.133C247.598 35.9402 245.754 37.3785 243.283 38.4481C240.812 39.5176 237.806 40.0524 234.266 40.0524Z" fill="url(#paint6_linear_5684_27616)"/>
<path d="M282.323 31.0904H264.344L260.914 39.3885H251.73L268.99 0.66385H277.842L295.157 39.3885H285.753L282.323 31.0904ZM279.501 24.2859L273.361 9.45989L267.22 24.2859H279.501Z" fill="url(#paint7_linear_5684_27616)"/>
<path d="M299.175 0.66385H316.767C320.971 0.66385 324.678 1.47522 327.887 3.09797C331.132 4.68384 333.64 6.93356 335.41 9.84713C337.217 12.7607 338.121 16.1537 338.121 20.0262C338.121 23.8987 337.217 27.2917 335.41 30.2052C333.64 33.1188 331.132 35.387 327.887 37.0097C324.678 38.5956 320.971 39.3885 316.767 39.3885H299.175V0.66385ZM316.324 32.0308C320.197 32.0308 323.276 30.9613 325.563 28.8222C327.887 26.6463 329.048 23.7143 329.048 20.0262C329.048 16.3381 327.887 13.4246 325.563 11.2855C323.276 9.10952 320.197 8.02154 316.324 8.02154H308.137V32.0308H316.324Z" fill="url(#paint8_linear_5684_27616)"/>
<path d="M363.633 40.0524C359.613 40.0524 355.981 39.1857 352.735 37.4523C349.527 35.7189 347 33.3401 345.156 30.3159C343.349 27.2548 342.445 23.8249 342.445 20.0262C342.445 16.2275 343.349 12.816 345.156 9.79181C347 6.73072 349.527 4.33348 352.735 2.60009C355.981 0.866695 359.613 0 363.633 0C367.653 0 371.268 0.866695 374.476 2.60009C377.685 4.33348 380.211 6.73072 382.055 9.79181C383.899 12.816 384.821 16.2275 384.821 20.0262C384.821 23.8249 383.899 27.2548 382.055 30.3159C380.211 33.3401 377.685 35.7189 374.476 37.4523C371.268 39.1857 367.653 40.0524 363.633 40.0524ZM363.633 32.4181C365.92 32.4181 367.985 31.9018 369.829 30.8691C371.673 29.7996 373.112 28.3243 374.144 26.4434C375.214 24.5625 375.749 22.4234 375.749 20.0262C375.749 17.6289 375.214 15.4899 374.144 13.609C373.112 11.728 371.673 10.2713 369.829 9.2386C367.985 8.16906 365.92 7.63429 363.633 7.63429C361.347 7.63429 359.281 8.16906 357.437 9.2386C355.593 10.2713 354.137 11.728 353.067 13.609C352.034 15.4899 351.518 17.6289 351.518 20.0262C351.518 22.4234 352.034 24.5625 353.067 26.4434C354.137 28.3243 355.593 29.7996 357.437 30.8691C359.281 31.9018 361.347 32.4181 363.633 32.4181Z" fill="url(#paint9_linear_5684_27616)"/>
<path d="M416.23 39.3885L408.762 28.6009H400.519V39.3885H391.557V0.66385H408.319C411.749 0.66385 414.718 1.2355 417.226 2.3788C419.77 3.5221 421.725 5.14485 423.09 7.24705C424.454 9.34924 425.137 11.8387 425.137 14.7154C425.137 17.5921 424.436 20.0815 423.034 22.1837C421.67 24.249 419.715 25.8349 417.17 26.9413L425.856 39.3885H416.23ZM416.064 14.7154C416.064 12.5394 415.363 10.8798 413.962 9.73649C412.56 8.55631 410.513 7.96622 407.821 7.96622H400.519V21.4645H407.821C410.513 21.4645 412.56 20.8744 413.962 19.6943C415.363 18.5141 416.064 16.8545 416.064 14.7154Z" fill="url(#paint10_linear_5684_27616)"/>
<path d="M81.3828 50.6115C84.8127 50.6115 87.7816 51.1831 90.2895 52.3264C92.8343 53.4697 94.7889 55.0925 96.1535 57.1947C97.5181 59.2969 98.2004 61.7863 98.2004 64.663C98.2004 67.5028 97.5181 69.9922 96.1535 72.1313C94.7889 74.2335 92.8343 75.8563 90.2895 76.9996C87.7816 78.106 84.8127 78.6592 81.3828 78.6592H73.5826V89.3361H64.6206V50.6115H81.3828ZM80.8849 71.3568C83.5772 71.3568 85.6241 70.7852 87.0256 69.6419C88.427 68.4617 89.1278 66.8021 89.1278 64.663C89.1278 62.487 88.427 60.8274 87.0256 59.6841C85.6241 58.5039 83.5772 57.9138 80.8849 57.9138H73.5826V71.3568H80.8849Z" fill="url(#paint11_linear_5684_27616)"/>
<path d="M129.272 89.3361L121.803 78.5486H113.561V89.3361H104.599V50.6115H121.361C124.791 50.6115 127.76 51.1831 130.268 52.3264C132.812 53.4697 134.767 55.0925 136.132 57.1947C137.496 59.2969 138.178 61.7863 138.178 64.663C138.178 67.5397 137.478 70.0291 136.076 72.1313C134.712 74.1966 132.757 75.7825 130.212 76.8889L138.898 89.3361H129.272ZM129.106 64.663C129.106 62.487 128.405 60.8274 127.004 59.6841C125.602 58.5039 123.555 57.9138 120.863 57.9138H113.561V71.4121H120.863C123.555 71.4121 125.602 70.8221 127.004 69.6419C128.405 68.4617 129.106 66.8021 129.106 64.663Z" fill="url(#paint12_linear_5684_27616)"/>
<path d="M164.033 90C160.013 90 156.38 89.1333 153.135 87.3999C149.926 85.6665 147.4 83.2877 145.556 80.2635C143.748 77.2024 142.845 73.7725 142.845 69.9738C142.845 66.1751 143.748 62.7636 145.556 59.7394C147.4 56.6783 149.926 54.2811 153.135 52.5477C156.38 50.8143 160.013 49.9476 164.033 49.9476C168.053 49.9476 171.667 50.8143 174.876 52.5477C178.084 54.2811 180.611 56.6783 182.455 59.7394C184.299 62.7636 185.221 66.1751 185.221 69.9738C185.221 73.7725 184.299 77.2024 182.455 80.2635C180.611 83.2877 178.084 85.6665 174.876 87.3999C171.667 89.1333 168.053 90 164.033 90ZM164.033 82.3657C166.319 82.3657 168.385 81.8494 170.229 80.8167C172.073 79.7472 173.511 78.2719 174.544 76.391C175.613 74.5101 176.148 72.371 176.148 69.9738C176.148 67.5766 175.613 65.4375 174.544 63.5566C173.511 61.6757 172.073 60.2189 170.229 59.1862C168.385 58.1167 166.319 57.5819 164.033 57.5819C161.746 57.5819 159.681 58.1167 157.837 59.1862C155.993 60.2189 154.536 61.6757 153.467 63.5566C152.434 65.4375 151.918 67.5766 151.918 69.9738C151.918 72.371 152.434 74.5101 153.467 76.391C154.536 78.2719 155.993 79.7472 157.837 80.8167C159.681 81.8494 161.746 82.3657 164.033 82.3657Z" fill="url(#paint13_linear_5684_27616)"/>
<path d="M218.123 69.3653H226.31V85.0764C224.208 86.6623 221.774 87.8794 219.008 88.7276C216.242 89.5759 213.457 90 210.655 90C206.635 90 203.02 89.1517 199.812 87.4552C196.603 85.7218 194.077 83.343 192.233 80.3188C190.426 77.2577 189.522 73.8094 189.522 69.9738C189.522 66.1382 190.426 62.7083 192.233 59.6841C194.077 56.623 196.621 54.2442 199.867 52.5477C203.112 50.8143 206.764 49.9476 210.821 49.9476C214.214 49.9476 217.293 50.5193 220.059 51.6626C222.825 52.8059 225.149 54.4655 227.03 56.6414L221.276 61.9523C218.51 59.0387 215.172 57.5819 211.263 57.5819C208.792 57.5819 206.598 58.0982 204.68 59.1309C202.762 60.1636 201.268 61.6203 200.199 63.5013C199.129 65.3822 198.595 67.5397 198.595 69.9738C198.595 72.371 199.129 74.5101 200.199 76.391C201.268 78.2719 202.744 79.7472 204.625 80.8167C206.542 81.8494 208.718 82.3657 211.152 82.3657C213.734 82.3657 216.058 81.8125 218.123 80.7061V69.3653Z" fill="url(#paint14_linear_5684_27616)"/>
<path d="M259.308 89.3361L251.84 78.5486H243.597V89.3361H234.635V50.6115H251.398C254.827 50.6115 257.796 51.1831 260.304 52.3264C262.849 53.4697 264.804 55.0925 266.168 57.1947C267.533 59.2969 268.215 61.7863 268.215 64.663C268.215 67.5397 267.514 70.0291 266.113 72.1313C264.748 74.1966 262.794 75.7825 260.249 76.8889L268.934 89.3361H259.308ZM259.142 64.663C259.142 62.487 258.442 60.8274 257.04 59.6841C255.639 58.5039 253.592 57.9138 250.9 57.9138H243.597V71.4121H250.9C253.592 71.4121 255.639 70.8221 257.04 69.6419C258.442 68.4617 259.142 66.8021 259.142 64.663Z" fill="url(#paint15_linear_5684_27616)"/>
<path d="M300.819 81.038H282.839L279.409 89.3361H270.226L287.486 50.6115H296.338L313.653 89.3361H304.249L300.819 81.038ZM297.997 74.2335L291.857 59.4075L285.716 74.2335H297.997Z" fill="url(#paint16_linear_5684_27616)"/>
<path d="M352.91 89.3361L352.855 66.1013L341.459 85.2424H337.42L326.08 66.5992V89.3361H317.671V50.6115H325.084L339.578 74.6761L353.851 50.6115H361.208L361.319 89.3361H352.91Z" fill="url(#paint17_linear_5684_27616)"/>
<defs>
<linearGradient id="paint0_linear_5684_27616" x1="425.99" y1="45.1511" x2="-2.40323" y2="45.1511" gradientUnits="userSpaceOnUse">
<stop stop-color="white"/>
<stop offset="1" stop-color="white" stop-opacity="0.73"/>
</linearGradient>
<linearGradient id="paint1_linear_5684_27616" x1="425.99" y1="45.1511" x2="-2.40323" y2="45.1511" gradientUnits="userSpaceOnUse">
<stop stop-color="white"/>
<stop offset="1" stop-color="white" stop-opacity="0.73"/>
</linearGradient>
<linearGradient id="paint2_linear_5684_27616" x1="425.99" y1="45.1511" x2="-2.40323" y2="45.1511" gradientUnits="userSpaceOnUse">
<stop stop-color="white"/>
<stop offset="1" stop-color="white" stop-opacity="0.73"/>
</linearGradient>
<linearGradient id="paint3_linear_5684_27616" x1="425.99" y1="45.1511" x2="-2.40323" y2="45.1511" gradientUnits="userSpaceOnUse">
<stop stop-color="white"/>
<stop offset="1" stop-color="white" stop-opacity="0.73"/>
</linearGradient>
<linearGradient id="paint4_linear_5684_27616" x1="425.99" y1="45.1511" x2="-2.40323" y2="45.1511" gradientUnits="userSpaceOnUse">
<stop stop-color="white"/>
<stop offset="1" stop-color="white" stop-opacity="0.73"/>
</linearGradient>
<linearGradient id="paint5_linear_5684_27616" x1="425.99" y1="45.1511" x2="-2.40323" y2="45.1511" gradientUnits="userSpaceOnUse">
<stop stop-color="white"/>
<stop offset="1" stop-color="white" stop-opacity="0.73"/>
</linearGradient>
<linearGradient id="paint6_linear_5684_27616" x1="425.99" y1="45.1511" x2="-2.40323" y2="45.1511" gradientUnits="userSpaceOnUse">
<stop stop-color="white"/>
<stop offset="1" stop-color="white" stop-opacity="0.73"/>
</linearGradient>
<linearGradient id="paint7_linear_5684_27616" x1="425.99" y1="45.1511" x2="-2.40323" y2="45.1511" gradientUnits="userSpaceOnUse">
<stop stop-color="white"/>
<stop offset="1" stop-color="white" stop-opacity="0.73"/>
</linearGradient>
<linearGradient id="paint8_linear_5684_27616" x1="425.99" y1="45.1511" x2="-2.40323" y2="45.1511" gradientUnits="userSpaceOnUse">
<stop stop-color="white"/>
<stop offset="1" stop-color="white" stop-opacity="0.73"/>
</linearGradient>
<linearGradient id="paint9_linear_5684_27616" x1="425.99" y1="45.1511" x2="-2.40323" y2="45.1511" gradientUnits="userSpaceOnUse">
<stop stop-color="white"/>
<stop offset="1" stop-color="white" stop-opacity="0.73"/>
</linearGradient>
<linearGradient id="paint10_linear_5684_27616" x1="425.99" y1="45.1511" x2="-2.40323" y2="45.1511" gradientUnits="userSpaceOnUse">
<stop stop-color="white"/>
<stop offset="1" stop-color="white" stop-opacity="0.73"/>
</linearGradient>
<linearGradient id="paint11_linear_5684_27616" x1="425.99" y1="45.1511" x2="-2.40323" y2="45.1511" gradientUnits="userSpaceOnUse">
<stop stop-color="white"/>
<stop offset="1" stop-color="white" stop-opacity="0.73"/>
</linearGradient>
<linearGradient id="paint12_linear_5684_27616" x1="425.99" y1="45.1511" x2="-2.40323" y2="45.1511" gradientUnits="userSpaceOnUse">
<stop stop-color="white"/>
<stop offset="1" stop-color="white" stop-opacity="0.73"/>
</linearGradient>
<linearGradient id="paint13_linear_5684_27616" x1="425.99" y1="45.1511" x2="-2.40323" y2="45.1511" gradientUnits="userSpaceOnUse">
<stop stop-color="white"/>
<stop offset="1" stop-color="white" stop-opacity="0.73"/>
</linearGradient>
<linearGradient id="paint14_linear_5684_27616" x1="425.99" y1="45.1511" x2="-2.40323" y2="45.1511" gradientUnits="userSpaceOnUse">
<stop stop-color="white"/>
<stop offset="1" stop-color="white" stop-opacity="0.73"/>
</linearGradient>
<linearGradient id="paint15_linear_5684_27616" x1="425.99" y1="45.1511" x2="-2.40323" y2="45.1511" gradientUnits="userSpaceOnUse">
<stop stop-color="white"/>
<stop offset="1" stop-color="white" stop-opacity="0.73"/>
</linearGradient>
<linearGradient id="paint16_linear_5684_27616" x1="425.99" y1="45.1511" x2="-2.40323" y2="45.1511" gradientUnits="userSpaceOnUse">
<stop stop-color="white"/>
<stop offset="1" stop-color="white" stop-opacity="0.73"/>
</linearGradient>
<linearGradient id="paint17_linear_5684_27616" x1="425.99" y1="45.1511" x2="-2.40323" y2="45.1511" gradientUnits="userSpaceOnUse">
<stop stop-color="white"/>
<stop offset="1" stop-color="white" stop-opacity="0.73"/>
</linearGradient>
</defs>
</svg>
